<?xml version="1.0" standalone="no"?>
<!DOCTYPE svg PUBLIC "-//W3C//DTD SVG 20010904//EN" "http://www.w3.org/TR/2001/REC-SVG-20010904/DTD/svg10.dtd">
<svg
  height="25px"
  version="1.0"
  viewBox="0 0 512 512"
  width="95px"
  xmlns="http://www.w3.org/2000/svg"
>
  <style>
    text {
      fill: #FFFFFF;
      font-family: Arial, sans-serif;
      font-size: 134px;
    }
  </style>
  <g
    fill="url(#gradient-fill)"
    stroke="none"
    transform="translate(-830,512) scale(0.1,-0.1)"
  >
    <path
      d="M1428 5106 c-53 -14 -126 -66 -158 -112 -11 -18 -30 -55 -41 -83 -19
-51 -19 -91 -17 -2364 l3 -2312 28 -57 c34 -70 101 -131 173 -158 54 -20 73
-20 1149 -20 1081 0 1095 0 1149 21 67 25 139 91 169 157 l22 47 3 2317 c2
2311 2 2317 -18 2371 -27 73 -88 139 -158 174 l-57 28 -1100 2 c-862 1 -1110
-1 -1147 -11z m1692 -196 c22 -22 26 -60 10 -91 -10 -18 -27 -19 -535 -19
-288 0 -530 3 -539 6 -26 10 -19 60 12 94 l27 30 503 0 c489 0 503 -1 522 -20z
m550 -2260 l0 -1830 -1120 0 -1120 0 0 1830 0 1830 1120 0 1120 0 0 -1830z
m-885 -2082 c15 -12 34 -36 41 -54 21 -50 18 -170 -6 -222 -30 -67 -58 -74
-271 -70 -160 3 -179 5 -199 23 -39 36 -50 70 -50 160 0 96 20 153 62 172 14
7 94 12 209 12 177 1 188 0 214 -21z"
    />
    <path
      d="M3285 3504 c-391 -60 -740 -271 -945 -570 -29 -44 -55 -81 -56 -83
-2 -2 -20 5 -41 15 -27 13 -60 19 -113 19 -118 0 -142 -16 -388 -259 l-213
-210 45 -45 45 -45 38 27 c96 66 203 77 293 30 75 -40 78 -47 46 -129 l-26
-69 113 -113 113 -113 69 26 c38 14 74 23 81 21 21 -8 64 -90 73 -140 12 -68
-7 -155 -49 -212 l-33 -46 44 -44 45 -44 211 212 c132 134 219 230 233 258 33
65 38 160 12 227 l-20 53 77 54 c158 112 247 202 346 350 139 210 228 477 242
729 l6 117 -79 -1 c-43 -1 -119 -7 -169 -15z m115 -140 c0 -14 -9 -70 -20
-123 -54 -267 -176 -508 -340 -671 -43 -43 -129 -112 -200 -159 -123 -82 -393
-221 -538 -277 l-73 -28 -56 56 -56 56 33 84 c123 307 295 596 437 736 158
154 439 292 683 335 124 22 130 22 130 -9z m-1206 -617 c16 -11 12 -23 -49
-150 -37 -76 -70 -137 -73 -135 -88 46 -143 68 -184 73 l-50 7 93 94 c51 51
107 100 124 109 37 18 115 20 139 2z m566 -566 c15 -28 12 -108 -4 -139 -8
-15 -58 -70 -110 -122 -89 -87 -96 -92 -96 -67 0 37 -37 145 -62 180 -11 15
-18 30 -16 32 6 7 262 134 270 134 4 1 12 -8 18 -18z"
    />
    <path
      d="M2994 3120 c-36 -14 -64 -59 -64 -102 0 -57 43 -98 102 -98 46 1 64
10 91 50 54 79 -38 187 -129 150z"
    />
    <path
      d="M2794 2913 c-12 -2 -34 -17 -49 -33 -78 -82 17 -213 119 -165 41 20
70 73 61 114 -11 53 -76 94 -131 84z"
    />
    <path
      d="M2540 2673 c-42 -39 -49 -87 -18 -133 60 -88 188 -50 188 57 0 93
-101 138 -170 76z"
    />
  </g>
  <text x="-400" y="256" class="text" dominant-baseline="middle">Adaptive Material UI</text>
  <defs>
    <linearGradient
      gradientUnits="userSpaceOnUse"
      id="gradient-fill"
      x1="0"
      x2="800"
      y1="0"
      y2="0"
    >
      <stop offset="0" stop-color="#0073e6" />
      <stop offset="0.14285714285714285" stop-color="#006edc" />
      <stop offset="0.2857142857142857" stop-color="#0069d2" />
      <stop offset="0.42857142857142855" stop-color="#0064c8" />
      <stop offset="0.5714285714285714" stop-color="#005fbe" />
      <stop offset="0.7142857142857143" stop-color="#005ab4" />
      <stop offset="0.8571428571428571" stop-color="#0055ab" />
      <stop offset="1" stop-color="#0050a1" />
    </linearGradient>
  </defs>
</svg>
