<?xml version="1.0" standalone="no"?>
<svg
  height="512"
  viewBox="0 0 290 512"
  width="290"
  xmlns="http://www.w3.org/2000/svg"
>
  <g
    fill="url(#gradient-fill)"
    filter="url(#shadow)"
  >
     <path transform="rotate(0,256,256) translate(20,20) scale(14.75,14.75)" d="M7.5000028,28.299988C7.0999936,28.299988,6.8000054,28.700012,6.8000054,29.200012L6.8000054,29.700012C6.8000054,30.200012,7.0999936,30.600006,7.5000028,30.600006L9.5000037,30.600006C9.8999976,30.600006,10.200001,30.200012,10.200001,29.700012L10.200001,29.200012C10.200001,28.700012,9.8999976,28.299988,9.5000037,28.299988z M1.3999944,4L1.3999944,26.899994 15.4,26.899994 15.4,4z M5.5000018,1.2000122L5.5000018,1.2999878C5.3000049,1.2999878 5.1999988,1.5 5.1999988,1.7000122 5.0999927,1.8999939 5.3000049,2 5.5000018,2L11.800008,2C12.000005,2 12.099996,1.7999878 12.099996,1.6000061 12.099996,1.3999939 11.899999,1.2000122 11.800008,1.2000122z M1.8999949,0L15.000006,0C16.000007,0,16.900001,0.8999939,16.900001,2L16.900001,30C16.900001,31.100006,16.099997,32,15.000006,32L1.8999949,32C0.89999431,32,6.56255E-08,31.100006,0,30L0,2C6.56255E-08,0.8999939,0.8000034,0,1.8999949,0z" />
     <path transform="rotate(0,90,90) translate(52, 170) scale(5.62482365028619,5.62482365028619)" d="M19.487188,21.027932L19.34533,21.107306C18.032056,21.830062,16.594211,22.534393,15.043882,23.213128L14.935678,23.259923 14.990329,23.324017C15.854117,24.392926,16.302456,25.695468,16.339503,27.022055L16.33974,27.080229 19.148006,24.271959C20.053307,23.366593,20.175974,21.984063,19.490615,21.032432z M17.238489,13.062014C17.673746,13.062015 18.109004,13.228014 18.44101,13.560014 19.105021,14.224014 19.105021,15.301014 18.44101,15.965014 17.776998,16.629014 16.699979,16.629014 16.035968,15.965014 15.371956,15.301014 15.371956,14.224014 16.035968,13.560014 16.367973,13.228014 16.803231,13.062015 17.238489,13.062014z M9.5309606,12.071919C8.8579609,12.08692,8.2179613,12.363924,7.727962,12.853932L4.9202375,15.661259 4.9774604,15.661488C6.3040485,15.698443,7.6066127,16.146755,8.6758327,17.010779L8.7404919,17.065911 8.7876945,16.956754C9.4662316,15.406675,10.170146,13.969118,10.892052,12.65629L10.971652,12.513898 10.882225,12.451754C10.490022,12.193796,10.02371,12.059169,9.5309606,12.071919z M20.640499,9.6599817C21.075757,9.6599817 21.511014,9.825985 21.84302,10.15799 22.507032,10.822002 22.507032,11.899021 21.84302,12.563033 21.179008,13.227045 20.10199,13.227045 19.437978,12.563033 18.773966,11.899021 18.773966,10.822002 19.437978,10.15799 19.769984,9.825985 20.205242,9.6599817 20.640499,9.6599817z M24.041479,6.2590094C24.476729,6.2590103 24.911979,6.4250097 25.243979,6.7570095 25.907979,7.42101 25.907979,8.4980097 25.243979,9.1620092 24.579979,9.8260088 23.502979,9.8260088 22.83898,9.1620092 22.17498,8.4980097 22.17498,7.42101 22.83898,6.7570095 23.170979,6.4250097 23.606229,6.2590103 24.041479,6.2590094z M29.946111,2.0543213C27.825098,2.2193184 22.754067,2.9983082 18.11204,6.6512585 18.075039,6.6832581 18.028039,6.7202578 17.971039,6.763257 15.052021,8.9832268 11.932002,14.105158 9.3659863,20.867067L11.132998,22.634043C17.895038,20.069078 23.01707,16.94812 25.237082,14.030159 25.281083,13.97216 25.318084,13.92616 25.349084,13.889161 29.003106,9.2472239 29.782111,4.1762924 29.946111,2.0543213z M30.885486,5.7220459E-06C30.956838,7.8201294E-05,31.002994,0.0009727478,31.022119,0.0013484955L31.973125,0.027347565 31.999124,0.97933578C32.008124,1.2833309,32.144124,8.5102339,26.926093,15.137144L26.847093,15.226143C25.648492,16.805809,23.793564,18.386354,21.386644,19.905878L21.224525,20.006415 21.237862,20.025815C22.360305,21.752949,22.130061,24.133814,20.569989,25.693958L14.40817,31.855785 14.384132,31.881015 14.266124,31.999015 14.265533,31.998423 14.264999,31.998957 12.843016,30.576958 12.98448,30.435493 13.121676,30.291648C14.720456,28.53255,14.745373,25.87621,13.140055,24.270025L12.954793,24.084775 12.911181,24.102309C12.361872,24.320498,11.800662,24.535488,11.227998,24.747015L10.623994,24.970011 7.0309725,21.37606 7.253974,20.772069C7.4655046,20.199492,7.6804934,19.638363,7.8986664,19.089134L7.9156523,19.046887 7.7299895,18.86106C6.1228356,17.25491,3.466466,17.280733,1.7073669,18.879434L1.5825472,18.998476 1.422967,19.158034 1.1159506,18.851012 0,17.735086 0.11800003,17.617089 0.15813828,17.578863 6.305963,11.431909C7.1639624,10.573895 8.2949615,10.086887 9.4879603,10.061887 10.38346,10.022886 11.251959,10.28089 11.985459,10.767554L11.994003,10.773538 12.091659,10.615867C13.608334,8.210288,15.18371,6.3576374,16.754031,5.1632786L16.864032,5.0742798C23.075945,0.18247032,29.815206,-0.0011005402,30.885486,5.7220459E-06z" />
  </g>
  <defs>
    <linearGradient
      gradientUnits="userSpaceOnUse"
      id="gradient-fill"
      x1="0"
      x2="800"
      y1="0"
      y2="0"
    >
      <stop offset="0" stop-color="#0073e6" />
      <stop offset="0.14285714285714285" stop-color="#006edc" />
      <stop offset="0.2857142857142857" stop-color="#0069d2" />
      <stop offset="0.42857142857142855" stop-color="#0064c8" />
      <stop offset="0.5714285714285714" stop-color="#005fbe" />
      <stop offset="0.7142857142857143" stop-color="#005ab4" />
      <stop offset="0.8571428571428571" stop-color="#0055ab" />
      <stop offset="1" stop-color="#0050a1" />
    </linearGradient>
    <filter id="shadow">
      <feDropShadow
        dx="5"
        dy="5"
        flood-color="#0062c4"
        flood-opacity="0.5"
        stdDeviation="3"
      />
    </filter>
  </defs>
</svg>
