<?xml version="1.0" encoding="utf-8"?>
<svg xmlns="http://www.w3.org/2000/svg" height="20" width="20" viewBox="0 0 48 48">
  <g>
    <path id="path1" transform="rotate(0,24,24) translate(0,2.88749004676523) scale(1.50000062584903,1.50000062584903)  " fill="#fbb451" d="M14.474757,20.894995L14.474757,23.562994 17.524841,23.562994 17.526794,23.562994 17.526794,20.894995z M14.950836,8.2090167L14.474757,18.709019 17.524841,18.709019 17.044855,8.2090167z M15.998822,0C16.924858,1.8512219E-07,17.780824,0.48999053,18.248848,1.2929997L31.644996,24.237005C32.115951,25.036993 32.115951,26.032995 31.659034,26.847021 31.188938,27.653023 30.332971,28.150001 29.395948,28.150001L2.603649,28.150001C1.6735847,28.150001 0.80968323,27.653023 0.34556663,26.847021 -0.11732932,26.032995 -0.11635275,25.036993 0.35557639,24.237005L13.748796,1.2929997C14.218773,0.49301177,15.072786,1.8512219E-07,15.998822,0z" />
  </g>
</svg>
